<?xml version="1.0" encoding="utf-8"?>
<!-- Generator: Adobe Illustrator 19.0.0, SVG Export Plug-In . SVG Version: 6.00 Build 0)  -->
<!DOCTYPE svg PUBLIC "-//W3C//DTD SVG 1.1//EN" "http://www.w3.org/Graphics/SVG/1.1/DTD/svg11.dtd">
<svg version="1.1" xmlns="http://www.w3.org/2000/svg" xmlns:xlink="http://www.w3.org/1999/xlink" x="0px" y="0px"
	 viewBox="50 -66.1 400 400" style="enable-background:new 50 -66.1 400 400;" xml:space="preserve">
<metadata><?xpacket begin="﻿" id="W5M0MpCehiHzreSzNTczkc9d"?>
<x:xmpmeta xmlns:x="adobe:ns:meta/" x:xmptk="Adobe XMP Core 5.6-c067 79.157747, 2015/03/30-23:40:42        ">
   <rdf:RDF xmlns:rdf="http://www.w3.org/1999/02/22-rdf-syntax-ns#">
      <rdf:Description rdf:about=""/>
   </rdf:RDF>
</x:xmpmeta>





















<?xpacket end="w"?></metadata>
<style type="text/css">
	.st0{fill:#FFFFFF;}
</style>
<g id="Layer_1">
	<path id="twitter_1_" class="st0" d="M71.6-61.9c2.5,0,3.8,0.9,5.2,2c1.1-0.1,2.5-0.7,3.3-1.2c0.3-0.1,0.5-0.3,0.8-0.4
		c-0.5,1.3-1.1,2.2-2.1,3c-0.3,0.1-0.4,0.4-0.7,0.5l0,0c1.5,0,2.5-0.7,3.7-1.1l0,0c-0.5,0.9-1.3,1.9-2.2,2.5
		c-0.4,0.3-0.7,0.5-1.1,0.8c0,1.5,0,2.9-0.3,4.2c-1.6,7.3-6,12.3-12.7,14.4c-2.5,0.8-6.3,1.1-9.3,0.4c-1.5-0.4-2.6-0.8-3.8-1.2
		c-0.7-0.3-1.3-0.7-1.9-0.9c-0.1-0.1-0.4-0.3-0.5-0.4c0.7,0,1.3,0.1,2.1,0.1c0.7-0.1,1.3-0.1,1.9-0.3c1.5-0.3,2.8-0.8,4-1.5
		c0.5-0.3,1.3-0.7,1.7-1.2c-0.8,0-1.5-0.1-2-0.4c-2.1-0.8-3.3-2.1-4.1-4.1c0.7,0.1,2.5,0.3,2.9-0.1c-0.8,0-1.6-0.5-2.1-0.8
		c-1.7-1.1-3-2.8-3-5.6c0.3,0.1,0.4,0.3,0.7,0.3c0.4,0.1,0.8,0.3,1.3,0.4c0.3,0,0.7,0.1,0.9,0.1l0,0c-0.3-0.4-0.9-0.7-1.2-1.1
		c-1.1-1.3-2.1-3.4-1.5-6c0.1-0.7,0.4-1.2,0.7-1.7l0,0c0.1,0.3,0.4,0.4,0.5,0.7c0.5,0.7,1.2,1.3,2,1.9c2.4,1.9,4.5,3,7.9,3.8
		c0.9,0.3,1.9,0.4,2.9,0.4c-0.3-0.8-0.3-2.2,0-3c0.5-2.1,1.9-3.6,3.7-4.4c0.4-0.1,0.9-0.4,1.5-0.4c0.1,0.1,0.3,0.1,0.4,0.1
		C71.3-61.8,71.4-61.8,71.6-61.9z"/>
	<path id="facebook_1_" class="st0" d="M101.4-66.1c-2,0-3.8,0.3-5.2,0.9s-2.2,1.7-2.6,2.8c-0.5,1.1-0.7,2.2-0.7,4.2v2h-3.3v5h3.2
		v16.8h6.9v-16.8h4.4l1.2-5h-5.6v-1.9c0-1.2,0.3-2.1,0.7-2.5s1.3-0.7,2.4-0.7s1.9,0.5,2.9,1.1l1.3-4.8
		C105-65.5,103.4-66.1,101.4-66.1z"/>
	<g>
		<path class="st0" d="M140.5-41.8c-0.2,1.3-2.8,4.5-3.9,5c-0.4,0.2-0.8,0.1-1.1-0.1c-0.2-0.2-0.4-0.5-3.2-5l-0.8-1.3
			c-0.3-0.5-0.3-1.1,0.1-1.6c0.4-0.5,1-0.6,1.4-0.5c0,0,2.1,0.7,2.1,0.7c4.7,1.5,4.8,1.6,5,1.7C140.4-42.6,140.5-42.3,140.5-41.8
			L140.5-41.8z M131.1-48.7c-0.3-0.5-0.3-1.1,0-1.5l1.3-1.8c2.8-3.9,3-4.1,3.2-4.2c0.3-0.2,0.7-0.2,1.1,0c1.1,0.6,3.4,3.9,3.5,5.2v0
			c0,0.4-0.1,0.8-0.5,1c-0.2,0.1-0.4,0.2-5.7,1.5c-0.9,0.2-1.3,0.3-1.6,0.4l0,0C132.1-47.9,131.5-48.1,131.1-48.7L131.1-48.7z
			 M127.9-50.7c-0.3,0.1-1,0.3-2-1.2c0,0-6.4-10.1-6.6-10.4c-0.1-0.4,0-0.7,0.3-1.1c1-1,6.1-2.4,7.5-2.1c0.4,0.1,0.7,0.4,0.9,0.8
			c0.1,0.4,0.7,9.8,0.8,11.9C128.9-51,128.1-50.8,127.9-50.7z M128.7-40.4c0,4.9,0,5.1-0.1,5.3c-0.1,0.4-0.4,0.6-0.9,0.7
			c-1.2,0.2-5.2-1.2-6-2.2c-0.2-0.2-0.3-0.4-0.3-0.6c0-0.2,0-0.3,0.1-0.4c0.1-0.2,0.2-0.4,3.8-4.6l1-1.2c0.4-0.4,1-0.6,1.6-0.4
			c0.6,0.2,0.9,0.7,0.9,1.2L128.7-40.4L128.7-40.4z M118.1-43.5c-0.4,0-0.7-0.2-0.9-0.6c-0.1-0.3-0.2-0.7-0.3-1.3
			c-0.2-1.7,0-4.2,0.5-5.1c0.2-0.4,0.6-0.6,1-0.6c0.3,0,0.5,0.1,5.5,2.2l1.5,0.6c0.5,0.2,0.9,0.7,0.8,1.4c0,0.6-0.4,1.1-0.9,1.2
			c0,0-2.1,0.7-2.1,0.7C118.5-43.6,118.3-43.5,118.1-43.5L118.1-43.5z"/>
	</g>
	<path class="st0" d="M176.1-36.7h-5.6v-8.8c0-2.1,0-4.8-2.9-4.8c-2.9,0-3.4,2.3-3.4,4.7v9h-5.6v-18.1h5.4v2.5h0.1
		c0.8-1.4,2.6-2.9,5.3-2.9c5.7,0,6.8,3.8,6.8,8.6V-36.7L176.1-36.7z M152.2-57.3c-1.8,0-3.3-1.5-3.3-3.3c0-1.8,1.5-3.3,3.3-3.3
		c1.8,0,3.3,1.5,3.3,3.3C155.4-58.8,154-57.3,152.2-57.3z M155-36.7h-5.6v-18.1h5.6C155-54.8,155-36.7,155-36.7z"/>
	<path class="st0" d="M194-45.7l-15.1-6.9v10.2c0,2.2,1.8,4,4,4h22.3c2.2,0,4-1.8,4-4v-10.2L194-45.7z"/>
	<path class="st0" d="M209.1-54.8v-0.9c0-2.2-1.8-4-4-4h-22.3c-2.2,0-4,1.8-4,4v0.9l15.1,6.9L209.1-54.8z"/>
	<path class="st0" d="M220.8-36.3c-0.2-1.4-0.3-3.7,0.1-5.2c0.3-1.4,2.1-9.1,2.1-9.1s-0.5-1.1-0.5-2.7c0-2.5,1.5-4.4,3.3-4.4
		c1.6,0,2.3,1.2,2.3,2.6c0,1.6-1,3.9-1.5,6.1c-0.4,1.8,0.9,3.3,2.7,3.3c3.2,0,5.7-3.4,5.7-8.4c0-4.4-3.1-7.4-7.6-7.4
		c-5.2,0-8.3,3.9-8.3,7.9c0,1.6,0.6,3.3,1.4,4.2c0.2,0.2,0.2,0.3,0.1,0.5c-0.1,0.6-0.4,1.8-0.5,2.1c-0.1,0.3-0.3,0.4-0.6,0.2
		c-2.3-1.1-3.7-4.4-3.7-7.1c0-5.8,4.2-11.1,12.1-11.1c6.3,0,11.3,4.5,11.3,10.6c0,6.3-4,11.4-9.5,11.4c-1.9,0-3.6-1-4.2-2.1
		l-1.1,4.3c-0.4,1.6-1.5,3.6-2.3,4.8c0,0-0.3,0.3-0.8,0.2S220.8-36.3,220.8-36.3z"/>
</g>
<g id="Layer_2">
</g>
</svg>
