<svg id="Layer_3" data-name="Layer 3" xmlns="http://www.w3.org/2000/svg" viewBox="0 0 468.4 240.74"><title>logo</title><path d="M-465.63,58.91c0.37,4,.58,8.37.69,13.67,0,1.39,0,2.78,0,4.17,0,2.93,0,5.7.2,8.46,0.07,1.27.11,2.54,0.14,3.81,0,0.89,0,1.77.09,2.66s0.13,2.05.23,3.17c0.07,0.81.14,1.61,0.19,2.42l0.07,1c0.37-.29.76-0.59,1.18-0.89a18.58,18.58,0,0,1,3.4-2l0.42-.19a21.81,21.81,0,0,1,4-1.43,23,23,0,0,1,5.36-.7h0.31a33.1,33.1,0,0,1,4.25.4h0.1c0.93,0.13,1.8.29,2.61,0.45a30.37,30.37,0,0,1,4.25,1.18,30.56,30.56,0,0,1,4.62,2.05A26.53,26.53,0,0,1-430.71,99c1,0.73,1.87,1.44,2.67,2.15V23h0a192.06,192.06,0,0,0-38.53,3.89c0,2.15,0,4.29,0,6.44,0,3.83,0,7.93.22,12.55C-466.2,50.16-466,54.61-465.63,58.91Z" transform="translate(619.97)" fill="#fff" opacity="0.6"/><path d="M-570.48,214.92c2.65-2.84,5.48-6,8.46-9.64,6.38-7.71,13.82-12,23.1-13.29A112.2,112.2,0,0,1-535,177.92a26.84,26.84,0,0,1-6.24-2.06,19.27,19.27,0,0,1-5.53-3.57l-0.17-.15c-0.41-.35-0.81-0.71-1.19-1.08a33.59,33.59,0,0,1-2.46-2.65,40.5,40.5,0,0,1-4.31-6.34,31.84,31.84,0,0,1-3-6.94c-0.29-1.1-.53-2.14-0.72-3.16l-0.34-.19a7.84,7.84,0,0,1-.73-0.48c-0.84-.62-1.74-1.3-2.61-2.08a35.43,35.43,0,0,1-3.22-3.26,24.9,24.9,0,0,1-3.4-5,38.79,38.79,0,0,1-2-4.82,30.62,30.62,0,0,1-.92-3.39l-0.15-.65c-0.19-.81-0.34-1.62-0.49-2.43-0.06-.34-0.12-0.67-0.19-1l-0.23-1.13c-0.15-.71-0.29-1.42-0.42-2.13-0.18-.94-0.35-1.92-0.5-2.95-1.13-1.11-2.27-2.31-3.45-3.59-0.28-.23-0.55-0.48-0.81-0.74a8.1,8.1,0,0,1-.55-0.61l-0.46-.56c-0.49-.6-0.95-1.2-1.41-1.8s-1-1.26-1.42-1.91c-0.84-1.16-1.66-2.38-2.42-3.6s-1.3-2.18-1.9-3.25A190.84,190.84,0,0,0-620,214.92h49.49Z" transform="translate(619.97)" fill="#fff" opacity="0.6"/><path d="M-540.35,70.71c4.26,1,8.63,2,12.86,3l0.14,0c2.19,0.5,4.54,1,6.93,1.68q1.38,0.37,2.77.84l0.19-.79c0.22-.88.49-1.92,0.89-3a48.31,48.31,0,0,1,2.27-5.33l0.36-.72a37.19,37.19,0,0,1,2.33-4.25,20.07,20.07,0,0,1,1.26-1.71,44.37,44.37,0,0,1,1.3-6.25,54.77,54.77,0,0,1,2.91-7.8,60,60,0,0,1,3.63-6.7c0.46-.73,1-1.5,1.51-2.27A192.19,192.19,0,0,0-550.24,67c1,0.48,2,.92,2.84,1.31A53.7,53.7,0,0,0-540.35,70.71Z" transform="translate(619.97)" fill="#fff" opacity="0.6"/><path d="M-411.36,123.24c-1.37.35-2.73,0.81-4.13,1a16.8,16.8,0,0,1-3.69,0,10,10,0,0,1-1.66-.44,13.75,13.75,0,0,1-2.07-1.23,12.2,12.2,0,0,1-1.37-1.35,57.63,57.63,0,0,1-3.6-6.79,25.83,25.83,0,0,0-4.35-6.28,24.55,24.55,0,0,0-3.22-2.76,18.38,18.38,0,0,0-2-1.26,23,23,0,0,0-3.43-1.51l-0.53-.17a21.68,21.68,0,0,0-2.57-.69c-0.72-.14-1.45-0.28-2.18-0.38a27.16,27.16,0,0,0-3.41-.34h-0.14a15.32,15.32,0,0,0-3.51.48,17.89,17.89,0,0,0-3,1.16,10.73,10.73,0,0,0-1.94,1.14,18.61,18.61,0,0,0-2.38,2c-0.25.25-.48,0.53-0.71,0.81-0.44.52-.86,1.05-1.23,1.58-0.17.25-.33,0.5-0.5,0.75s-0.5.76-.73,1.15-0.45.75-.65,1.14c-0.41.8-.73,1.64-1.07,2.47a9.65,9.65,0,0,0-.34,1c0,0.13-.08.26-0.11,0.39-0.13.56-.24,1.12-0.34,1.68a21.89,21.89,0,0,0-.3,2.24c-0.09,1.31-.14,2.63-0.28,3.93a19.35,19.35,0,0,1-1.27,4.17h0a23.43,23.43,0,0,0,4.31-3.89c0.75-1,1.49-2,2.22-2.94a27.62,27.62,0,0,1,1.86-2.14c0.67-.67,1.36-1.29,2.08-1.89a30.09,30.09,0,0,1,4-2.44,16.44,16.44,0,0,1,2.35-.64,15.15,15.15,0,0,1,2.22,0,27.21,27.21,0,0,1,5,1.44l0.74,0.32a24.22,24.22,0,0,1,2.6,1.61,37.42,37.42,0,0,1,3.17,2.9c1.23,1.28,2.42,2.59,3.67,3.84a26.62,26.62,0,0,0,2.12,1.88,16.85,16.85,0,0,0,3.26,2.18,14.84,14.84,0,0,0,4,1.28,13.1,13.1,0,0,0,4.41.06,14.81,14.81,0,0,0,3.53-1.18c2.1-.94,3.59-2.67,5.1-4.33C-411.35,123.25-411.35,123.24-411.36,123.24Z" transform="translate(619.97)" fill="#fff"/><path d="M-493.14,105.78l0.24,0.31,0.24,0.31Z" transform="translate(619.97)" fill="#fff"/><path d="M-606.17,32.59c0.27,2.82.67,5.61,1.14,8.41,0.19,1.17.52,2.33,0.8,3.48s0.61,2.14.93,3.2a74.8,74.8,0,0,0,3.08,7.85,52.75,52.75,0,0,0,8.18,13,56.2,56.2,0,0,0,6,6c-0.07.33-.16,0.67-0.21,1a24,24,0,0,0-.3,3.3,35.45,35.45,0,0,0,.65,6.79,48.36,48.36,0,0,0,1.65,6.61,40,40,0,0,0,2.86,6.37l0.32,0.61c1.11,2.1,2.22,4.22,3.47,6.23q1,1.62,2.13,3.18c0.42,0.58.84,1.15,1.28,1.72s0.82,1.07,1.25,1.6l0.43,0.53a5.68,5.68,0,0,0,.68.58,76,76,0,0,0,5.58,5.65,45.51,45.51,0,0,0,.74,5.29c0.2,1.05.42,2.1,0.63,3.15s0.38,2.12.62,3.16a33.51,33.51,0,0,0,.84,3.26,30.62,30.62,0,0,0,1.62,3.83,16.81,16.81,0,0,0,2.3,3.33,27.59,27.59,0,0,0,2.5,2.53c0.64,0.57,1.35,1.11,2,1.62a4.7,4.7,0,0,0,.79.37,25.93,25.93,0,0,0,3.19,1.85c0,0.14,0,.28,0,0.43a12.5,12.5,0,0,0,.21,2.77c0.17,0.94.38,1.86,0.63,2.78a24.12,24.12,0,0,0,2.25,5.19,32.7,32.7,0,0,0,3.47,5.09,26.12,26.12,0,0,0,1.9,2c0.32,0.31.66,0.6,1,.89a11.21,11.21,0,0,0,3.43,2.25,18.17,18.17,0,0,0,6.06,1.79,13.17,13.17,0,0,0,2,.05,15.55,15.55,0,0,0,4-.65,39,39,0,0,0,3.69-1.44,17.21,17.21,0,0,0,5.57-3.44,31.73,31.73,0,0,0,3.56-5h0l-0.73.34a26.81,26.81,0,0,1-3.19,1c-1.12.32-2.23,0.6-3.37,0.8a46.31,46.31,0,0,1-7.55.12l-0.65,0c-0.8-.13-1.61-0.27-2.39-0.48-1.07-.29-2.12-0.61-3.15-1l-0.22-.16-0.57-.26c-0.39-.18-0.79-0.37-1.16-0.59s-0.79-.42-1.18-0.65l-2.34-1.37c-1.46-.86-2.88-1.74-4.26-2.72a25.51,25.51,0,0,1-3.4-3.24,18.3,18.3,0,0,1-2.24-3.71c0-.09-0.06-0.18-0.09-0.27,0.58,0.25,1.16.49,1.77,0.71a27.74,27.74,0,0,0,7.19,1.6,27.67,27.67,0,0,0,3.08,0c1.11,0,2.22-.11,3.32-0.24,0.84-.1,1.69-0.22,2.52-0.4,0.38-.08.76-0.17,1.13-0.28a19.76,19.76,0,0,0,3.16-1.34l1.65-.84a17.06,17.06,0,0,0,2-1.06,0,0,0,0,0,0,0,4.81,4.81,0,0,1-.74,0h0c-2-.28-4-0.48-6-0.72-0.63-.11-1.25-0.24-1.88-0.38-1.08-.23-2.16-0.48-3.23-0.78-1.76-.5-3.53-1-5.25-1.61h0c-1.52-.71-3.07-1.4-4.53-2.22-1.19-.67-2.33-1.41-3.46-2.17a5.78,5.78,0,0,0-1.12-.95c-1.7-1.12-3.39-2.26-5-3.48-0.63-.53-1.24-1.07-1.81-1.67s-0.94-1-1.38-1.6c-1.18-1.65-2.27-3.35-3.33-5.1s-1.9-3.21-2.7-4.9c1,0.81,2,1.59,3,2.31a37.48,37.48,0,0,0,6.08,3.48,30.79,30.79,0,0,0,3.94,1.52,28.3,28.3,0,0,0,3.25.69,31.15,31.15,0,0,0,7.87.58c1.35-.12,2.69-0.3,4-0.5s2.36-.47,3.55-0.68c0,0,0,0,0,0a28.07,28.07,0,0,1-2.64-1,62.07,62.07,0,0,1-8.13-4.22c-2.59-1.59-5.17-3.2-7.62-5l-0.24-.19c-2.26-1.85-4.55-3.72-6.64-5.77s-4-4-6-5.92a5,5,0,0,0-.75-0.88l-0.69-.63-1-.88c-0.66-.61-1.31-1.24-2-1.85-1.3-1.22-2.53-2.51-3.74-3.81-1.35-1.45-2.73-2.89-4.08-4.35-1-1.1-2-2.21-3-3.37a42.29,42.29,0,0,1-4.61-8.06,22.72,22.72,0,0,1-.93-2.63,27.28,27.28,0,0,1-.54-2.74c0-.4,0-0.79,0-1.19q1.77,1.52,3.58,3c3.6,3,7.27,5.84,11.09,8.51,0.59,0.41,1.18.83,1.78,1.24a79.59,79.59,0,0,0,11.56,6.39c2.86,1.28,5.74,2.54,8.7,3.55,2.12,0.73,4.28,1.34,6.43,2,4.29,1.24,8.59,2.35,13,3.29,2.18,0.47,4.3,1.11,6.45,1.69s4.4,1.17,6.58,1.84c3.17,1,6.28,2.13,9.41,3.2,2.9,1,5.78,2,8.61,3.19a61.62,61.62,0,0,1,10.28,5.88q1.6,1.12,3.15,2.3a15.54,15.54,0,0,1,2.2,2.07,13.94,13.94,0,0,1,1.05,1.68h0a11.62,11.62,0,0,0-1.45-3.59c-0.46-.74-1-1.46-1.43-2.18s-0.75-1.16-1.12-1.75L-487,115l-1.2-1.92c-0.52-.82-1-1.65-1.55-2.48a51.33,51.33,0,0,0-3.11-4.47c-1.44-1.84-2.9-3.65-4.43-5.41-0.3-.35-0.62-0.68-0.93-1-1.18-1.31-2.38-2.6-3.6-3.87a44.16,44.16,0,0,0-4.75-4.33l0,0c0-.63.06-1.27,0.11-1.9,0.24-2.88.47-5.78,0.83-8.65a15.72,15.72,0,0,0,.25-1.86c0.05-.47.11-0.94,0.17-1.41L-505,75.3c0.24-1.62.53-3.22,0.82-4.83,0.14-.82.28-1.64,0.42-2.46a11.8,11.8,0,0,1,.72-2.43l0.24-.48a44.68,44.68,0,0,0,.67,10.29,25,25,0,0,0,1.41,5c0.37,0.92.75,1.83,1.21,2.7s1,1.79,1.55,2.66h0l-0.05-.37h0a41.29,41.29,0,0,1,.32-10.18l0.14-1c0.33-2.17.62-4.34,1-6.5,0.19-1.09.38-2.18,0.57-3.27,0.1-.57.2-1.14,0.3-1.71a21.76,21.76,0,0,0,.37-2.26c0.17-1,.32-2.1.46-3.15,0.07-.49.13-1,0.2-1.46l-0.11.85c0.38-2.52.78-5,1.33-7.5,0.26-1.18.57-2.35,0.87-3.53s0.6-2.37,1-3.51a16.19,16.19,0,0,1,1.43-2.62,111.32,111.32,0,0,0-1.61,12.88c-0.14,2.16-.22,4.31-0.17,6.47a66.82,66.82,0,0,0,.92,8.85,71,71,0,0,0,3.72,12.79,96.54,96.54,0,0,0,5.65,13c1,1.8,2.16,3.47,3.25,5.2,0.8,1.27,1.57,2.57,2.34,3.86,0.26,0.43.51,0.85,0.77,1.28,1,1.68,2.08,3.37,3.26,5l0.36,0.48c0.22,0.28.45,0.56,0.69,0.83l0.14,0.16h0c0-.07,0-0.14,0-0.2-0.07-.31-0.14-0.62-0.18-0.94-0.08-.63-0.14-1.26-0.21-1.89-0.22-2-.39-4-0.54-6q-0.13-1.75-.25-3.5c-0.13-1.93-.34-3.84-0.43-5.77-0.09-2.13-.11-4.25-0.22-6.38-0.24-4.3-.18-8.61-0.26-12.91s-0.26-8.74-.65-13.1-0.59-9-.77-13.46c-0.17-4.31-.27-8.62-0.23-12.93,0-1.51,0-3,0-4.54s0-2.79,0-4.18A66,66,0,0,1-474,16a53.12,53.12,0,0,1,3.48-13,27.19,27.19,0,0,1,1.74-3h0a23.13,23.13,0,0,0-3.84,3.82c-0.7.89-1.38,1.79-2.07,2.7-1.36,1.8-2.7,3.62-4,5.44s-2.65,3.74-3.91,5.66a43.13,43.13,0,0,0-3.45,7,55.45,55.45,0,0,0-2.62,8.24c-0.34,1.41-.65,2.82-0.94,4.23-0.07.35-.13,0.7-0.2,1a11.91,11.91,0,0,0-2,1.21,11.12,11.12,0,0,0-1.86,1.76,26.42,26.42,0,0,0-2,2.86,52,52,0,0,0-3.15,5.81,46.81,46.81,0,0,0-2.48,6.66,39.86,39.86,0,0,0-1.32,7.31c0,0.08,0,.15,0,0.23a14.92,14.92,0,0,0-2.23,2.6,39.26,39.26,0,0,0-2.21,4.15A40.3,40.3,0,0,0-509,75.14c-0.27.75-.47,1.52-0.67,2.3a13.75,13.75,0,0,0-.5,2.88l0-.3a33,33,0,0,0,.18,8.91c-0.38-.27-0.74-0.54-1.13-0.8a31.44,31.44,0,0,0-3-1.69,43,43,0,0,0-8.39-3.3c-2.19-.59-4.4-1.1-6.62-1.61-4.38-1-8.76-2-13.12-3.05a61.13,61.13,0,0,1-8.26-2.77c-1.69-.75-3.37-1.52-5-2.39l-1.22-.67c-1.54-.85-3.07-1.72-4.57-2.65-3.92-2.43-7.74-5-11.53-7.68q-1.66-1.16-3.28-2.36c-0.89-.74-1.8-1.47-2.62-2.28-1.15-1.14-2.34-2.24-3.45-3.42s-2.18-2.38-3.25-3.59c-0.72-.82-1.4-1.68-2.08-2.54L-589.1,46c-0.72-.94-1.35-2-2-2.94-1.33-1.89-2.45-3.91-3.62-5.89-1.06-1.79-2-3.66-2.93-5.52s-1.92-3.83-2.83-5.77c-1.3-2.76-2.61-5.51-3.84-8.31-0.62-1.58-1.29-3.15-1.87-4.74h0a76.07,76.07,0,0,0-.33,13.61C-606.47,28.5-606.37,30.55-606.17,32.59Z" transform="translate(619.97)" fill="#fff"/><path d="M-471.62,109.36l0,0,0,0Z" transform="translate(619.97)" fill="#fff"/><path d="M-435.23,165.4c-2.66,38.91-31.14,36.87-45.14,38.79-23.85,3.28-43.63-7.53-60-3.82-5.57,1.27-10.74,4.22-15.53,10-1.31,1.59-2.6,3.09-3.85,4.54-16.74,19.23-28.17,25.82-28.17,25.82,29.3-6.56,36-19,43.71-25.82a23.38,23.38,0,0,1,2.95-2.25c5.67-3.6,13.17-4,29.86,2.29,28.17,10.64,46.45,9.92,67.49-8C-421.27,187.73-435.47,164.64-435.23,165.4Z" transform="translate(619.97)" fill="#fff"/><path d="M-402.39,22.76H-388V73.87l50-51.11h16.56L-372.7,74.23l58.49,56.51h-19.08L-388,77.65v53.09h-14.4v-108Z" transform="translate(619.97)" fill="#fff"/><path d="M-264.91,98.35H-309c-1.08,9.89,3.06,24.48,23.22,24.48,6.84,0,16.2-3.78,20.7-8.64v10.44c-5.22,5.4-15.48,8.45-24.48,8.45-19.79,0-32.39-14-32.39-33.11C-322,80-308.1,67-291.37,67c16,0,27.36,11.52,27.36,24.65A28.22,28.22,0,0,1-264.91,98.35Zm-26.28-21.78c-7.56,0-14.4,4.32-16.74,13.14h31a6.81,6.81,0,0,0,.18-1.44C-276.79,82.33-281.65,76.57-291.19,76.57Z" transform="translate(619.97)" fill="#fff"/><path d="M-256.76,130.74v-108h13.14v108h-13.14Z" transform="translate(619.97)" fill="#fff"/><path d="M-232.92,130.74v-108h13.14v108h-13.14Z" transform="translate(619.97)" fill="#fff"/><path d="M-196.15,170.62h-13.14l18.85-42.76-26.09-58.49h13L-184,115.62l19.44-46.25h13Z" transform="translate(619.97)" fill="#fff"/><path d="M-402.46,135.1h5.29v34.78h-5.29V135.1Z" transform="translate(619.97)" fill="#fff"/><path d="M-375.54,169.89v-13.3c0-4.3-1.79-6.22-5.23-6.22-3.24,0-7.34,2.85-7.34,6.62v12.9h-4.83V147.33h4.3l0.33,3.9c1.52-2.51,5.36-4.76,9.13-4.76,6.09,0,8.47,4.23,8.47,9.86v13.56h-4.83Z" transform="translate(619.97)" fill="#fff"/><path d="M-360.21,170.75a16.83,16.83,0,0,1-8.6-2.51l0.93-3.64a15.15,15.15,0,0,0,7.74,2.58c2.65,0,4.3-1.06,4.3-3.24,0-1.65-1.26-2.78-5-3.64-5-1.19-6.95-3.84-6.95-6.95,0-3.57,2.32-6.88,8.07-6.88a15.12,15.12,0,0,1,7.21,2.12l-0.86,3.38a12.9,12.9,0,0,0-6.35-2.05c-2.78,0-3.84,1.19-3.84,2.85s1.46,2.58,4.17,3.24c5.36,1.26,7.74,3.84,7.74,7.34C-351.6,167.77-354.72,170.75-360.21,170.75Z" transform="translate(619.97)" fill="#fff"/><path d="M-331.17,169.89l-0.33-3.9c-1.52,2.52-5.36,4.76-9.13,4.76-6.09,0-8.47-4.23-8.47-9.86V147.33h4.83v13.3c0,4.3,1.79,6.22,5.23,6.22,3.24,0,7.34-2.85,7.34-6.62v-12.9h4.83v22.56h-4.3Z" transform="translate(619.97)" fill="#fff"/><path d="M-318.15,156.79v13.1H-323V147.33h4.3l0.33,3.9a10.66,10.66,0,0,1,8.8-4.76v4.89C-313.85,150.57-318.15,153-318.15,156.79Z" transform="translate(619.97)" fill="#fff"/><path d="M-290.11,169.89l-0.26-3.57a10.69,10.69,0,0,1-8.73,4.43c-6,0-11-5-11-12.17s5-12.11,11-12.11c2.91,0,6.82,1.45,8.73,4.43l0.26-3.57h4.3v22.56h-4.3Zm-15.15-11.25c0,5.56,3.64,8.4,7.28,8.4,3.37,0,7.61-2.51,7.61-8.4s-4.23-8.47-7.61-8.47C-301.62,150.17-305.26,153.08-305.26,158.64Z" transform="translate(619.97)" fill="#fff"/><path d="M-264.52,169.89v-13.3c0-4.3-1.79-6.22-5.23-6.22-3.24,0-7.34,2.85-7.34,6.62v12.9h-4.83V147.33h4.3l0.33,3.9c1.52-2.51,5.36-4.76,9.13-4.76,6.09,0,8.47,4.23,8.47,9.86v13.56h-4.83Z" transform="translate(619.97)" fill="#fff"/><path d="M-245.13,170.62c-7,0-12.17-5-12.17-12s5.16-12,12.17-12a12.64,12.64,0,0,1,7.87,2.58v4a10.52,10.52,0,0,0-7.48-2.85c-4.43,0-7.74,3.18-7.74,8.2s3.31,8.27,7.74,8.27a10.52,10.52,0,0,0,7.48-2.85v4A12.62,12.62,0,0,1-245.13,170.62Z" transform="translate(619.97)" fill="#fff"/><path d="M-213.9,158h-16.21c-0.4,3.64,1.13,9,8.54,9A11.81,11.81,0,0,0-214,163.8v3.84c-1.92,2-5.69,3.11-9,3.11-7.28,0-11.91-5.16-11.91-12.17,0-7.34,5.09-12.11,11.25-12.11,5.89,0,10.06,4.23,10.06,9.06A10.37,10.37,0,0,1-213.9,158Zm-9.66-8a6.15,6.15,0,0,0-6.15,4.83h11.38a2.5,2.5,0,0,0,.07-0.53C-218.26,152.09-220,150-223.56,150Z" transform="translate(619.97)" fill="#fff"/><path d="M-403.08,211.23l1.13-4.64a15.35,15.35,0,0,0,11.42,5.15c4.45,0,7.91-2.51,7.91-6.59,0-3.83-1.88-6-8.91-7.84s-10.48-5.71-10.48-11,4.39-9.79,12.11-9.79A16.93,16.93,0,0,1-379.68,180l-1.13,4a16.79,16.79,0,0,0-9.1-3.32c-4.71,0-7.4,2.2-7.4,5.71,0,2.7,1.69,5,7.59,6.53,8.09,2.13,11.8,5.65,11.8,11.86,0,7.34-6.15,11.11-12.61,11.11C-396.68,215.81-401,213.37-403.08,211.23Z" transform="translate(619.97)" fill="#fff"/><path d="M-355.43,203h-16.21c-0.4,3.64,1.13,9,8.54,9a11.81,11.81,0,0,0,7.61-3.18v3.84c-1.92,2-5.69,3.11-9,3.11-7.28,0-11.91-5.16-11.91-12.17,0-7.34,5.09-12.11,11.25-12.11,5.89,0,10.06,4.23,10.06,9.06A10.37,10.37,0,0,1-355.43,203Zm-9.66-8a6.15,6.15,0,0,0-6.15,4.83h11.38a2.5,2.5,0,0,0,.07-0.53C-359.8,197.16-361.58,195-365.09,195Z" transform="translate(619.97)" fill="#fff"/><path d="M-347.68,201.85V215h-4.83V192.39h4.3l0.33,3.9a10.66,10.66,0,0,1,8.8-4.76v4.89C-343.38,195.63-347.68,198.08-347.68,201.85Z" transform="translate(619.97)" fill="#fff"/><path d="M-323.44,215.15h-3.64l-10.12-22.76h4.76l7.21,17,7.15-17h4.76Z" transform="translate(619.97)" fill="#fff"/><path d="M-311.44,184.72v-5.29h4.83v5.29h-4.83Zm0,30.24V192.39h4.83V215h-4.83Z" transform="translate(619.97)" fill="#fff"/><path d="M-293,215.68c-7,0-12.17-5-12.17-12s5.16-12,12.17-12a12.64,12.64,0,0,1,7.87,2.58v4a10.52,10.52,0,0,0-7.48-2.85c-4.43,0-7.74,3.18-7.74,8.2s3.31,8.27,7.74,8.27a10.52,10.52,0,0,0,7.48-2.85v4A12.62,12.62,0,0,1-293,215.68Z" transform="translate(619.97)" fill="#fff"/><path d="M-262.72,203h-16.21c-0.4,3.64,1.13,9,8.54,9a11.81,11.81,0,0,0,7.61-3.18v3.84c-1.92,2-5.69,3.11-9,3.11-7.28,0-11.91-5.16-11.91-12.17,0-7.34,5.09-12.11,11.25-12.11,5.89,0,10.06,4.23,10.06,9.06A10.37,10.37,0,0,1-262.72,203Zm-9.66-8a6.15,6.15,0,0,0-6.15,4.83h11.38a2.5,2.5,0,0,0,.07-0.53C-267.09,197.16-268.88,195-272.38,195Z" transform="translate(619.97)" fill="#fff"/><path d="M-252.38,215.81a16.83,16.83,0,0,1-8.6-2.51l0.93-3.64a15.15,15.15,0,0,0,7.74,2.58c2.65,0,4.3-1.06,4.3-3.24,0-1.65-1.26-2.78-5-3.64-5-1.19-6.95-3.84-6.95-6.95,0-3.57,2.32-6.88,8.07-6.88a15.12,15.12,0,0,1,7.21,2.12L-245.5,197a12.9,12.9,0,0,0-6.35-2.05c-2.78,0-3.84,1.19-3.84,2.85s1.46,2.58,4.17,3.24c5.36,1.26,7.74,3.84,7.74,7.34C-243.78,212.84-246.89,215.81-252.38,215.81Z" transform="translate(619.97)" fill="#fff"/></svg>